<?xml version="1.0" encoding="UTF-8"?>
<svg width="1440px" height="65px" viewBox="0 0 1440 65" version="1.1" xmlns="http://www.w3.org/2000/svg" xmlns:xlink="http://www.w3.org/1999/xlink">
    <!-- Generator: Sketch 53.2 (72643) - https://sketchapp.com -->
    <title>wave</title>
    <desc>Created with Sketch.</desc>
    <g id="Page-1" stroke="none" stroke-width="1" fill="none" fill-rule="evenodd">
        <g id="Desktop-HD" transform="translate(0.000000, -509.000000)" fill="#BE17B9" fill-rule="nonzero" stroke="#BE17B9">
            <g id="wave" transform="translate(720.500000, 541.500000) scale(1, -1) translate(-720.500000, -541.500000) translate(0.000000, 510.000000)">
                <path d="M84.0967744,28.3506061 C123.110311,28.0240051 151.987903,17.5953896 181.898282,17.5953896 C217.610673,17.6250806 251.147411,39.2056674 290.861191,39.1165945 C312.868828,39.0869035 349.321682,29.330409 374.330359,24.1938665 C392.136538,20.5418738 454.460159,38.7009205 479.468836,39.1165945 C500.57616,39.4431954 538.544387,23.7781925 562.952857,28.3506061 C607.168199,36.6343944 597.67453,47.5012994 647.691885,48.0060463 C697.70924,48.4811023 660.88987,30.6389611 738.61684,31.5 C816.243775,32.3313479 795.187352,48.3623383 845.804916,48.0060463 C896.422479,47.6497544 928.996767,35.6910226 965.409402,36.1363876 C1001.92207,36.5817525 1009.23779,46.8480975 1087.665,48.0060463 C1166.09221,49.1639952 1127.05497,39.7697964 1186.07545,39.1165945 C1234.49224,38.5821565 1226.19682,50.1141072 1269.81195,48.0060463 C1284.01688,47.3231534 1312.18937,43.7500389 1329.49538,44.0469489 C1352.30329,44.4329318 1357.27615,51.4733694 1377.68323,52.8391553 C1390.58771,53.7001942 1409.5891,63.3794594 1440.49983,52.8391553 C1440.49983,57.8272429 1441,58.0119124 1441,63 L0.500173551,63 C0.500173551,58.0119124 0,5.01348221 0,0.025394654 C5.70197848,-0.984099255 73.3930604,28.4396791 84.0967744,28.3506061 Z" id="Path"></path>
            </g>
        </g>
    </g>
</svg>